<?xml version="1.0" encoding="utf-8"?>
<!-- Generator: Adobe Illustrator 24.0.0, SVG Export Plug-In . SVG Version: 6.00 Build 0)  -->
<svg version="1.1" id="Layer_1" xmlns="http://www.w3.org/2000/svg" xmlns:xlink="http://www.w3.org/1999/xlink" x="0px" y="0px"
	 viewBox="0 0 1920 200" style="enable-background:new 0 0 1920 200;" xml:space="preserve">
<style type="text/css">
	.st0{fill:#F6F6F6;}
	.st1{clip-path:url(#SVGID_2_);}
	.st2{clip-path:url(#SVGID_4_);}
	.st3{fill:none;stroke:#0069B4;stroke-width:2;stroke-miterlimit:10;}
	.st4{clip-path:url(#SVGID_6_);}
	.st5{clip-path:url(#SVGID_8_);}
	.st6{clip-path:url(#SVGID_10_);}
	.st7{fill:none;stroke:#28AD78;stroke-width:2;stroke-miterlimit:10;}
	.st8{clip-path:url(#SVGID_12_);}
	.st9{fill:#28AD78;}
	.st10{fill:#0069B4;}
</style>
<g>
	<rect x="0.5" class="st0" width="1920" height="200"/>
	<g>
		<defs>
			<rect id="SVGID_1_" y="0.16" transform="matrix(-1 -1.224647e-16 1.224647e-16 -1 1917 200)" width="1917" height="199.69"/>
		</defs>
		<clipPath id="SVGID_2_">
			<use xlink:href="#SVGID_1_"  style="overflow:visible;"/>
		</clipPath>
		<g class="st1">
			<defs>
				<path id="SVGID_3_" d="M-1.8,303.18c0,0,27.24-6.24,49.1-7.97s29.6-0.35,74.33-0.69c44.73-0.35,102.58-12.14,126.46-11.79
					c23.88,0.35,47.09,0.69,110.99-8.67s101.57,1.39,153.7,2.08c52.13,0.69,57.85-10.06,153.37-10.06s112.33,26.7,205.5,26.7
					c85.86,0,130.49-41.95,183.3-49.93c26.17-3.95,61.55-6.24,103.93,5.55s130.16,13.52,160.43,13.52
					c30.27,0,102.24,15.95,117.04,15.95c14.8,0,48.43-2.77,75.34-2.77s108.97,36.06,166.82,37.45
					c57.85,1.39,90.14-29.13,129.15-48.54s142.6-5.55,142.6-5.55l-1.35-140.48c0,0-16.92,15.97-67.27,43.4
					c-53.18,28.97-86.04-17.78-166.82-15.26c-44.4,1.39-49.78,2.77-64.57,1.39c-14.8-1.39-133.19-26.35-189.69-20.8
					c-56.5,5.55-64.57,13.87-78.03,15.26c-13.45,1.39-75.34-19.42-126.46-13.87c-51.12,5.55-39.01,24.96-113.01,27.74
					c-73.99,2.77-103.59-1.39-134.53-6.93c-30.94-5.55-44.4-29.13-134.53-26.35c-90.14,2.77-100.9,59.64-219.29,59.64
					s-94.19-15.69-166.82-18.03c-53.81-1.73-60.54,8.32-72.65,8.32c-24.25,0-69.96,32-130.49,33.38
					c-60.54,1.39-147.98-66.52-182.96-67.91c-34.98-1.39-104.93-9.98-104.93-9.98L-1.8,303.18z"/>
			</defs>
			<clipPath id="SVGID_4_">
				<use xlink:href="#SVGID_3_"  style="overflow:visible;"/>
			</clipPath>
			<g class="st2">
				<line class="st3" x1="1914.07" y1="397.55" x2="1914.07" y2="-2.95"/>
				<line class="st3" x1="1897.99" y1="397.57" x2="1897.99" y2="-2.93"/>
				<line class="st3" x1="1881.92" y1="397.58" x2="1881.92" y2="-2.91"/>
				<line class="st3" x1="1865.85" y1="397.6" x2="1865.85" y2="-2.89"/>
				<line class="st3" x1="1849.78" y1="397.62" x2="1849.78" y2="-2.88"/>
				<line class="st3" x1="1833.71" y1="397.64" x2="1833.71" y2="-2.86"/>
				<line class="st3" x1="1817.64" y1="397.65" x2="1817.64" y2="-2.84"/>
				<line class="st3" x1="1801.57" y1="397.67" x2="1801.57" y2="-2.82"/>
				<line class="st3" x1="1785.49" y1="397.69" x2="1785.49" y2="-2.81"/>
				<line class="st3" x1="1769.42" y1="397.71" x2="1769.42" y2="-2.79"/>
				<line class="st3" x1="1753.35" y1="397.72" x2="1753.35" y2="-2.77"/>
				<line class="st3" x1="1737.28" y1="397.74" x2="1737.28" y2="-2.76"/>
				<line class="st3" x1="1721.21" y1="397.76" x2="1721.21" y2="-2.74"/>
				<line class="st3" x1="1705.14" y1="397.77" x2="1705.14" y2="-2.72"/>
				<line class="st3" x1="1689.07" y1="397.79" x2="1689.07" y2="-2.7"/>
				<line class="st3" x1="1672.99" y1="397.81" x2="1672.99" y2="-2.69"/>
				<line class="st3" x1="1656.92" y1="397.83" x2="1656.92" y2="-2.67"/>
				<line class="st3" x1="1640.85" y1="397.84" x2="1640.85" y2="-2.65"/>
				<line class="st3" x1="1624.78" y1="397.86" x2="1624.78" y2="-2.64"/>
				<line class="st3" x1="1608.71" y1="397.88" x2="1608.71" y2="-2.62"/>
				<line class="st3" x1="1592.64" y1="397.89" x2="1592.64" y2="-2.6"/>
				<line class="st3" x1="1576.57" y1="397.91" x2="1576.57" y2="-2.58"/>
				<line class="st3" x1="1560.49" y1="397.93" x2="1560.49" y2="-2.57"/>
				<line class="st3" x1="1544.42" y1="397.95" x2="1544.42" y2="-2.55"/>
				<line class="st3" x1="1528.35" y1="397.96" x2="1528.35" y2="-2.53"/>
				<line class="st3" x1="1512.28" y1="397.98" x2="1512.28" y2="-2.52"/>
				<line class="st3" x1="1496.21" y1="398" x2="1496.21" y2="-2.5"/>
				<line class="st3" x1="1480.14" y1="398.01" x2="1480.14" y2="-2.48"/>
				<line class="st3" x1="1464.07" y1="398.03" x2="1464.07" y2="-2.46"/>
				<line class="st3" x1="1447.99" y1="398.05" x2="1447.99" y2="-2.45"/>
				<line class="st3" x1="1431.92" y1="398.07" x2="1431.92" y2="-2.43"/>
				<line class="st3" x1="1415.85" y1="398.08" x2="1415.85" y2="-2.41"/>
				<line class="st3" x1="1399.78" y1="398.1" x2="1399.78" y2="-2.4"/>
				<line class="st3" x1="1383.71" y1="398.12" x2="1383.71" y2="-2.38"/>
				<line class="st3" x1="1367.64" y1="398.14" x2="1367.64" y2="-2.36"/>
				<line class="st3" x1="1351.57" y1="398.15" x2="1351.57" y2="-2.34"/>
				<line class="st3" x1="1335.49" y1="398.17" x2="1335.49" y2="-2.33"/>
				<line class="st3" x1="1319.42" y1="398.19" x2="1319.42" y2="-2.31"/>
				<line class="st3" x1="1303.35" y1="398.2" x2="1303.35" y2="-2.29"/>
				<line class="st3" x1="1287.28" y1="398.22" x2="1287.28" y2="-2.27"/>
				<line class="st3" x1="1271.21" y1="398.24" x2="1271.21" y2="-2.26"/>
				<line class="st3" x1="1255.14" y1="398.26" x2="1255.14" y2="-2.24"/>
				<line class="st3" x1="1239.07" y1="398.27" x2="1239.07" y2="-2.22"/>
				<line class="st3" x1="1222.99" y1="398.29" x2="1222.99" y2="-2.21"/>
				<line class="st3" x1="1206.92" y1="398.31" x2="1206.92" y2="-2.19"/>
				<line class="st3" x1="1190.85" y1="398.32" x2="1190.85" y2="-2.17"/>
				<line class="st3" x1="1174.78" y1="398.34" x2="1174.78" y2="-2.15"/>
				<line class="st3" x1="1158.71" y1="398.36" x2="1158.71" y2="-2.14"/>
				<line class="st3" x1="1142.64" y1="398.38" x2="1142.64" y2="-2.12"/>
				<line class="st3" x1="1126.57" y1="398.39" x2="1126.57" y2="-2.1"/>
				<line class="st3" x1="1110.49" y1="398.41" x2="1110.49" y2="-2.09"/>
				<line class="st3" x1="1094.42" y1="398.43" x2="1094.42" y2="-2.07"/>
				<line class="st3" x1="1078.35" y1="398.44" x2="1078.35" y2="-2.05"/>
				<line class="st3" x1="1062.28" y1="398.46" x2="1062.28" y2="-2.03"/>
				<line class="st3" x1="1046.21" y1="398.48" x2="1046.21" y2="-2.02"/>
				<line class="st3" x1="1030.14" y1="398.5" x2="1030.14" y2="-2"/>
				<line class="st3" x1="1014.07" y1="398.51" x2="1014.07" y2="-1.98"/>
				<line class="st3" x1="997.99" y1="398.53" x2="997.99" y2="-1.97"/>
				<line class="st3" x1="981.92" y1="398.55" x2="981.92" y2="-1.95"/>
				<line class="st3" x1="965.85" y1="398.56" x2="965.85" y2="-1.93"/>
				<line class="st3" x1="949.78" y1="398.58" x2="949.78" y2="-1.91"/>
				<line class="st3" x1="933.71" y1="398.6" x2="933.71" y2="-1.9"/>
				<line class="st3" x1="917.64" y1="398.62" x2="917.64" y2="-1.88"/>
				<line class="st3" x1="901.57" y1="398.63" x2="901.57" y2="-1.86"/>
				<line class="st3" x1="885.49" y1="398.65" x2="885.49" y2="-1.84"/>
				<line class="st3" x1="869.42" y1="398.67" x2="869.42" y2="-1.83"/>
				<line class="st3" x1="853.35" y1="398.69" x2="853.35" y2="-1.81"/>
				<line class="st3" x1="837.28" y1="398.7" x2="837.28" y2="-1.79"/>
				<line class="st3" x1="821.21" y1="398.72" x2="821.21" y2="-1.78"/>
				<line class="st3" x1="805.14" y1="398.74" x2="805.14" y2="-1.76"/>
				<line class="st3" x1="789.07" y1="398.75" x2="789.07" y2="-1.74"/>
				<line class="st3" x1="772.99" y1="398.77" x2="772.99" y2="-1.72"/>
				<line class="st3" x1="756.92" y1="398.79" x2="756.92" y2="-1.71"/>
				<line class="st3" x1="740.85" y1="398.81" x2="740.85" y2="-1.69"/>
				<line class="st3" x1="724.78" y1="398.82" x2="724.78" y2="-1.67"/>
				<line class="st3" x1="708.71" y1="398.84" x2="708.71" y2="-1.66"/>
				<line class="st3" x1="692.64" y1="398.86" x2="692.64" y2="-1.64"/>
				<line class="st3" x1="676.57" y1="398.87" x2="676.57" y2="-1.62"/>
				<line class="st3" x1="660.49" y1="398.89" x2="660.49" y2="-1.6"/>
				<line class="st3" x1="644.42" y1="398.91" x2="644.42" y2="-1.59"/>
				<line class="st3" x1="628.35" y1="398.93" x2="628.35" y2="-1.57"/>
				<line class="st3" x1="612.28" y1="398.94" x2="612.28" y2="-1.55"/>
				<line class="st3" x1="596.21" y1="398.96" x2="596.21" y2="-1.54"/>
				<line class="st3" x1="580.14" y1="398.98" x2="580.14" y2="-1.52"/>
				<line class="st3" x1="564.07" y1="398.99" x2="564.07" y2="-1.5"/>
				<line class="st3" x1="547.99" y1="399.01" x2="547.99" y2="-1.48"/>
				<line class="st3" x1="531.92" y1="399.03" x2="531.92" y2="-1.47"/>
				<line class="st3" x1="515.85" y1="399.05" x2="515.85" y2="-1.45"/>
				<line class="st3" x1="499.78" y1="399.06" x2="499.78" y2="-1.43"/>
				<line class="st3" x1="483.71" y1="399.08" x2="483.71" y2="-1.42"/>
				<line class="st3" x1="467.64" y1="399.1" x2="467.64" y2="-1.4"/>
				<line class="st3" x1="451.57" y1="399.12" x2="451.57" y2="-1.38"/>
				<line class="st3" x1="435.49" y1="399.13" x2="435.49" y2="-1.36"/>
				<line class="st3" x1="419.42" y1="399.15" x2="419.42" y2="-1.35"/>
				<line class="st3" x1="403.35" y1="399.17" x2="403.35" y2="-1.33"/>
				<line class="st3" x1="387.28" y1="399.18" x2="387.28" y2="-1.31"/>
				<line class="st3" x1="371.21" y1="399.2" x2="371.21" y2="-1.29"/>
				<line class="st3" x1="355.14" y1="399.22" x2="355.14" y2="-1.28"/>
				<line class="st3" x1="339.07" y1="399.24" x2="339.07" y2="-1.26"/>
				<line class="st3" x1="322.99" y1="399.25" x2="322.99" y2="-1.24"/>
				<line class="st3" x1="306.92" y1="399.27" x2="306.92" y2="-1.23"/>
				<line class="st3" x1="290.85" y1="399.29" x2="290.85" y2="-1.21"/>
				<line class="st3" x1="274.78" y1="399.3" x2="274.78" y2="-1.19"/>
				<line class="st3" x1="258.71" y1="399.32" x2="258.71" y2="-1.17"/>
				<line class="st3" x1="242.64" y1="399.34" x2="242.64" y2="-1.16"/>
				<line class="st3" x1="226.57" y1="399.36" x2="226.57" y2="-1.14"/>
				<line class="st3" x1="210.49" y1="399.37" x2="210.49" y2="-1.12"/>
				<line class="st3" x1="194.42" y1="399.39" x2="194.42" y2="-1.11"/>
				<line class="st3" x1="178.35" y1="399.41" x2="178.35" y2="-1.09"/>
				<line class="st3" x1="162.28" y1="399.42" x2="162.28" y2="-1.07"/>
				<line class="st3" x1="146.21" y1="399.44" x2="146.21" y2="-1.05"/>
				<line class="st3" x1="130.14" y1="399.46" x2="130.14" y2="-1.04"/>
				<line class="st3" x1="114.07" y1="399.48" x2="114.07" y2="-1.02"/>
				<line class="st3" x1="97.99" y1="399.49" x2="97.99" y2="-1"/>
				<line class="st3" x1="81.92" y1="399.51" x2="81.92" y2="-0.99"/>
				<line class="st3" x1="65.85" y1="399.53" x2="65.85" y2="-0.97"/>
				<line class="st3" x1="49.78" y1="399.54" x2="49.78" y2="-0.95"/>
				<line class="st3" x1="33.71" y1="399.56" x2="33.71" y2="-0.93"/>
				<line class="st3" x1="17.64" y1="399.58" x2="17.64" y2="-0.92"/>
				<line class="st3" x1="1.57" y1="399.6" x2="1.57" y2="-0.9"/>
			</g>
		</g>
		<g class="st1">
			<defs>
				<path id="SVGID_5_" d="M1946.88,293.45c-24.22-8.77-61.04-22.42-93.84-5.85s-107.96,64.33-176.57,54.59
					c-68.61-9.75-116.54-102.35-176.07-108.2c-59.53-5.85-134.7,25.34-167.49,25.34s-106.45-1.95-123.1,3.9
					s-88.77,22.42-112.5,22.42c-67.6,0-164.46-22.42-220.46-16.57c-56,5.85-143.78-25.34-217.94-17.55
					c-74.16,7.8-119.06,15.6-141.76,14.62c-22.7-0.97-39.35-4.87-70.63-1.95s-105.44,60.43-170.01,57.51s-123.6-24.37-190.7-19.49
					S3.58,322.69,3.58,322.69l0.41-182.75c0,0,33.58-16.69,80.87-19.97c100.84-6.99,162.89,55.54,205.27,55.54
					c65.58,0,87.78-3.62,112.5-4.6c24.72-0.97,42.88-23.96,67.1-23.96c83.8,0,149.33,44.16,206.34,43.18
					c57.01-0.97,232.07,10.72,273.43,0c41.37-10.72,82.23-22.42,99.38-22.42c17.15,0,55.99,16.28,133.19-48.74
					c19.68-16.57,114.52,8.77,161.94-11.7s81.46,20.88,100.39,13.65c203.66-77.81,272.21,3.89,339.52-4.87
					c44.9-5.85,87.78,35.09,162.95-9.75V293.45z"/>
			</defs>
			<clipPath id="SVGID_6_">
				<use xlink:href="#SVGID_5_"  style="overflow:visible;"/>
			</clipPath>
			<g class="st4">
				<line class="st3" x1="1905.89" y1="539.68" x2="1905.89" y2="-210.91"/>
				<line class="st3" x1="1889.82" y1="539.71" x2="1889.82" y2="-210.88"/>
				<line class="st3" x1="1873.75" y1="539.74" x2="1873.75" y2="-210.85"/>
				<line class="st3" x1="1857.68" y1="539.78" x2="1857.68" y2="-210.82"/>
				<line class="st3" x1="1841.61" y1="539.81" x2="1841.61" y2="-210.78"/>
				<line class="st3" x1="1825.54" y1="539.84" x2="1825.54" y2="-210.75"/>
				<line class="st3" x1="1809.47" y1="539.87" x2="1809.47" y2="-210.72"/>
				<line class="st3" x1="1793.39" y1="539.91" x2="1793.39" y2="-210.69"/>
				<line class="st3" x1="1777.32" y1="539.94" x2="1777.32" y2="-210.65"/>
				<line class="st3" x1="1761.25" y1="539.97" x2="1761.25" y2="-210.62"/>
				<line class="st3" x1="1745.18" y1="540" x2="1745.18" y2="-210.59"/>
				<line class="st3" x1="1729.11" y1="540.03" x2="1729.11" y2="-210.56"/>
				<line class="st3" x1="1713.04" y1="540.07" x2="1713.04" y2="-210.53"/>
				<line class="st3" x1="1696.97" y1="540.1" x2="1696.97" y2="-210.49"/>
				<line class="st3" x1="1680.89" y1="540.13" x2="1680.89" y2="-210.46"/>
				<line class="st3" x1="1664.82" y1="540.16" x2="1664.82" y2="-210.43"/>
				<line class="st3" x1="1648.75" y1="540.2" x2="1648.75" y2="-210.4"/>
				<line class="st3" x1="1632.68" y1="540.23" x2="1632.68" y2="-210.36"/>
				<line class="st3" x1="1616.61" y1="540.26" x2="1616.61" y2="-210.33"/>
				<line class="st3" x1="1600.54" y1="540.29" x2="1600.54" y2="-210.3"/>
				<line class="st3" x1="1584.47" y1="540.32" x2="1584.47" y2="-210.27"/>
				<line class="st3" x1="1568.39" y1="540.36" x2="1568.39" y2="-210.24"/>
				<line class="st3" x1="1552.32" y1="540.39" x2="1552.32" y2="-210.2"/>
				<line class="st3" x1="1536.25" y1="540.42" x2="1536.25" y2="-210.17"/>
				<line class="st3" x1="1520.18" y1="540.45" x2="1520.18" y2="-210.14"/>
				<line class="st3" x1="1504.11" y1="540.49" x2="1504.11" y2="-210.11"/>
				<line class="st3" x1="1488.04" y1="540.52" x2="1488.04" y2="-210.07"/>
				<line class="st3" x1="1471.97" y1="540.55" x2="1471.97" y2="-210.04"/>
				<line class="st3" x1="1455.89" y1="540.58" x2="1455.89" y2="-210.01"/>
				<line class="st3" x1="1439.82" y1="540.61" x2="1439.82" y2="-209.98"/>
				<line class="st3" x1="1423.75" y1="540.65" x2="1423.75" y2="-209.95"/>
				<line class="st3" x1="1407.68" y1="540.68" x2="1407.68" y2="-209.91"/>
				<line class="st3" x1="1391.61" y1="540.71" x2="1391.61" y2="-209.88"/>
				<line class="st3" x1="1375.54" y1="540.74" x2="1375.54" y2="-209.85"/>
				<line class="st3" x1="1359.47" y1="540.78" x2="1359.47" y2="-209.82"/>
				<line class="st3" x1="1343.4" y1="540.81" x2="1343.4" y2="-209.78"/>
				<line class="st3" x1="1327.32" y1="540.84" x2="1327.32" y2="-209.75"/>
				<line class="st3" x1="1311.25" y1="540.87" x2="1311.25" y2="-209.72"/>
				<line class="st3" x1="1295.18" y1="540.9" x2="1295.18" y2="-209.69"/>
				<line class="st3" x1="1279.11" y1="540.94" x2="1279.11" y2="-209.66"/>
				<line class="st3" x1="1263.04" y1="540.97" x2="1263.04" y2="-209.62"/>
				<line class="st3" x1="1246.97" y1="541" x2="1246.97" y2="-209.59"/>
				<line class="st3" x1="1230.9" y1="541.03" x2="1230.9" y2="-209.56"/>
				<line class="st3" x1="1214.82" y1="541.07" x2="1214.82" y2="-209.53"/>
				<line class="st3" x1="1198.75" y1="541.1" x2="1198.75" y2="-209.49"/>
				<line class="st3" x1="1182.68" y1="541.13" x2="1182.68" y2="-209.46"/>
				<line class="st3" x1="1166.61" y1="541.16" x2="1166.61" y2="-209.43"/>
				<line class="st3" x1="1150.54" y1="541.19" x2="1150.54" y2="-209.4"/>
				<line class="st3" x1="1134.47" y1="541.23" x2="1134.47" y2="-209.37"/>
				<line class="st3" x1="1118.4" y1="541.26" x2="1118.4" y2="-209.33"/>
				<line class="st3" x1="1102.32" y1="541.29" x2="1102.32" y2="-209.3"/>
				<line class="st3" x1="1086.25" y1="541.32" x2="1086.25" y2="-209.27"/>
				<line class="st3" x1="1070.18" y1="541.36" x2="1070.18" y2="-209.24"/>
				<line class="st3" x1="1054.11" y1="541.39" x2="1054.11" y2="-209.2"/>
				<line class="st3" x1="1038.04" y1="541.42" x2="1038.04" y2="-209.17"/>
				<line class="st3" x1="1021.97" y1="541.45" x2="1021.97" y2="-209.14"/>
				<line class="st3" x1="1005.9" y1="541.48" x2="1005.9" y2="-209.11"/>
				<line class="st3" x1="989.82" y1="541.52" x2="989.82" y2="-209.08"/>
				<line class="st3" x1="973.75" y1="541.55" x2="973.75" y2="-209.04"/>
				<line class="st3" x1="957.68" y1="541.58" x2="957.68" y2="-209.01"/>
				<line class="st3" x1="941.61" y1="541.61" x2="941.61" y2="-208.98"/>
				<line class="st3" x1="925.54" y1="541.65" x2="925.54" y2="-208.95"/>
				<line class="st3" x1="909.47" y1="541.68" x2="909.47" y2="-208.91"/>
				<line class="st3" x1="893.4" y1="541.71" x2="893.4" y2="-208.88"/>
				<line class="st3" x1="877.32" y1="541.74" x2="877.32" y2="-208.85"/>
				<line class="st3" x1="861.25" y1="541.77" x2="861.25" y2="-208.82"/>
				<line class="st3" x1="845.18" y1="541.81" x2="845.18" y2="-208.79"/>
				<line class="st3" x1="829.11" y1="541.84" x2="829.11" y2="-208.75"/>
				<line class="st3" x1="813.04" y1="541.87" x2="813.04" y2="-208.72"/>
				<line class="st3" x1="796.97" y1="541.9" x2="796.97" y2="-208.69"/>
				<line class="st3" x1="780.9" y1="541.94" x2="780.9" y2="-208.66"/>
				<line class="st3" x1="764.82" y1="541.97" x2="764.82" y2="-208.62"/>
				<line class="st3" x1="748.75" y1="542" x2="748.75" y2="-208.59"/>
				<line class="st3" x1="732.68" y1="542.03" x2="732.68" y2="-208.56"/>
				<line class="st3" x1="716.61" y1="542.06" x2="716.61" y2="-208.53"/>
				<line class="st3" x1="700.54" y1="542.1" x2="700.54" y2="-208.5"/>
				<line class="st3" x1="684.47" y1="542.13" x2="684.47" y2="-208.46"/>
				<line class="st3" x1="668.4" y1="542.16" x2="668.4" y2="-208.43"/>
				<line class="st3" x1="652.32" y1="542.19" x2="652.32" y2="-208.4"/>
				<line class="st3" x1="636.25" y1="542.23" x2="636.25" y2="-208.37"/>
				<line class="st3" x1="620.18" y1="542.26" x2="620.18" y2="-208.33"/>
				<line class="st3" x1="604.11" y1="542.29" x2="604.11" y2="-208.3"/>
				<line class="st3" x1="588.04" y1="542.32" x2="588.04" y2="-208.27"/>
				<line class="st3" x1="571.97" y1="542.35" x2="571.97" y2="-208.24"/>
				<line class="st3" x1="555.9" y1="542.39" x2="555.9" y2="-208.21"/>
				<line class="st3" x1="539.82" y1="542.42" x2="539.82" y2="-208.17"/>
				<line class="st3" x1="523.75" y1="542.45" x2="523.75" y2="-208.14"/>
				<line class="st3" x1="507.68" y1="542.48" x2="507.68" y2="-208.11"/>
				<line class="st3" x1="491.61" y1="542.52" x2="491.61" y2="-208.08"/>
				<line class="st3" x1="475.54" y1="542.55" x2="475.54" y2="-208.04"/>
				<line class="st3" x1="459.47" y1="542.58" x2="459.47" y2="-208.01"/>
				<line class="st3" x1="443.4" y1="542.61" x2="443.4" y2="-207.98"/>
				<line class="st3" x1="427.32" y1="542.64" x2="427.32" y2="-207.95"/>
				<line class="st3" x1="411.25" y1="542.68" x2="411.25" y2="-207.92"/>
				<line class="st3" x1="395.18" y1="542.71" x2="395.18" y2="-207.88"/>
				<line class="st3" x1="379.11" y1="542.74" x2="379.11" y2="-207.85"/>
				<line class="st3" x1="363.04" y1="542.77" x2="363.04" y2="-207.82"/>
				<line class="st3" x1="346.97" y1="542.81" x2="346.97" y2="-207.79"/>
				<line class="st3" x1="330.9" y1="542.84" x2="330.9" y2="-207.75"/>
				<line class="st3" x1="314.82" y1="542.87" x2="314.82" y2="-207.72"/>
				<line class="st3" x1="298.75" y1="542.9" x2="298.75" y2="-207.69"/>
				<line class="st3" x1="282.68" y1="542.93" x2="282.68" y2="-207.66"/>
				<line class="st3" x1="266.61" y1="542.97" x2="266.61" y2="-207.63"/>
				<line class="st3" x1="250.54" y1="543" x2="250.54" y2="-207.59"/>
				<line class="st3" x1="234.47" y1="543.03" x2="234.47" y2="-207.56"/>
				<line class="st3" x1="218.4" y1="543.06" x2="218.4" y2="-207.53"/>
				<line class="st3" x1="202.32" y1="543.1" x2="202.32" y2="-207.5"/>
				<line class="st3" x1="186.25" y1="543.13" x2="186.25" y2="-207.46"/>
				<line class="st3" x1="170.18" y1="543.16" x2="170.18" y2="-207.43"/>
				<line class="st3" x1="154.11" y1="543.19" x2="154.11" y2="-207.4"/>
				<line class="st3" x1="138.04" y1="543.22" x2="138.04" y2="-207.37"/>
				<line class="st3" x1="121.97" y1="543.26" x2="121.97" y2="-207.34"/>
				<line class="st3" x1="105.9" y1="543.29" x2="105.9" y2="-207.3"/>
				<line class="st3" x1="89.82" y1="543.32" x2="89.82" y2="-207.27"/>
				<line class="st3" x1="73.75" y1="543.35" x2="73.75" y2="-207.24"/>
				<line class="st3" x1="57.68" y1="543.39" x2="57.68" y2="-207.21"/>
				<line class="st3" x1="41.61" y1="543.42" x2="41.61" y2="-207.17"/>
				<line class="st3" x1="25.54" y1="543.45" x2="25.54" y2="-207.14"/>
				<line class="st3" x1="9.47" y1="543.48" x2="9.47" y2="-207.11"/>
			</g>
		</g>
	</g>
</g>
</svg>
